<!DOCTYPE svg PUBLIC "-//W3C//DTD SVG 1.1//EN" "http://www.w3.org/Graphics/SVG/1.1/DTD/svg11.dtd" [
	<!ENTITY ns_flows "http://ns.adobe.com/Flows/1.0/">
]><svg xmlns="http://www.w3.org/2000/svg" width="300" height="120" viewBox="-1 -1 300 120" overflow="visible" enable-background="new -1 -1 300 120"><path fill="#4D555E" d="M143.445 36.977c.87.056 1.991.168 2.748.309.14.477.197 1.599.112 2.047h-9.116c.029-.562.308-1.487.504-1.963.562-.168 1.684-.365 2.357-.421v-15.119h-3.872c-.056.617-.252 1.795-.365 2.328-.701.197-1.711.253-2.44.253v-4.741h16.747v4.854c-.787 0-1.768-.084-2.469-.281-.14-.617-.309-1.739-.365-2.412h-3.842v15.146zM156.713 37.146c.617.084 1.487.252 1.936.449.112.393.167 1.262.084 1.739h-7.377c.056-.533.224-1.234.421-1.627.42-.252 1.178-.504 1.71-.673v-15.793h-1.991c.028-.645.281-1.515.589-2.02.701-.28 1.796-.477 2.833-.477.589 0 1.347.084 1.795.253v4.852c0 1.234-.084 2.75-.196 4.067h.336c.562-1.374 1.992-2.552 4.405-2.552 2.299 0 4.404.701 4.404 5.077 0 2.216-.057 4.573-.197 6.705.673.056 1.571.252 2.132.449.084.365.112.729.112 1.094 0 .252-.028.477-.057.646h-7.097c.057-.533.196-1.234.365-1.627.365-.252 1.039-.504 1.487-.673v-6.031c0-1.908-.645-3.169-2.44-3.169-1.43 0-2.664.953-3.253 1.851v7.46zM171.946 33.163c.14 2.608 1.794 4.151 4.235 4.151 1.235 0 3.113-.365 4.151-.757.057.589-.196 1.599-.532 2.132-1.01.561-2.721 1.122-4.601 1.122-4.207 0-6.62-3.001-6.62-6.957 0-4.264 2.693-7.489 6.816-7.489 3.59 0 5.078 2.497 5.078 6.283 0 .477-.029 1.01-.084 1.515h-8.443zm5.357-2.077c.169-1.711-.365-3.759-2.384-3.759-1.71 0-2.86 1.543-3.029 3.759h5.413zM137.694 51.498c-.618-.056-1.515-.168-1.992-.252-.084-.589-.14-1.458-.028-2.077h8.19c.084.45.057 1.572-.084 2.048-.673.112-1.907.225-2.693.252v15.119h6.368c.057-.813.224-2.132.365-2.777.616-.224 1.851-.336 2.552-.336v5.357h-15.203c.057-.562.253-1.515.449-1.992.477-.14 1.515-.337 2.076-.393v-14.949zM155.703 62.663c.141 2.608 1.796 4.151 4.236 4.151 1.234 0 3.113-.365 4.152-.757.055.589-.196 1.599-.534 2.132-1.009.561-2.721 1.122-4.6 1.122-4.208 0-6.62-3.001-6.62-6.957 0-4.264 2.693-7.489 6.816-7.489 3.591 0 5.077 2.497 5.077 6.283 0 .477-.028 1.01-.084 1.515h-8.443zm5.357-2.077c.169-1.711-.363-3.759-2.383-3.759-1.711 0-2.862 1.543-3.029 3.759h5.412zM174.245 67.234c-.757 1.318-2.132 2.076-4.011 2.076-2.047 0-4.012-1.262-4.012-3.955 0-3.001 2.497-4.516 5.47-4.516.841 0 1.767.168 2.44.477v-1.291c0-1.794-.87-2.637-2.554-2.637-1.262 0-3.31.646-4.319 1.262-.084-.224-.112-.645-.112-.954 0-.728.169-1.542.42-1.963.981-.477 3.198-.87 4.797-.87 3.281 0 4.908 1.403 4.908 5.133v5.077c0 .73.141 1.431.365 1.768.477 0 1.375-.14 1.908-.28.027.14.027.28.027.364 0 .534-.168 1.123-.393 1.571-.673.393-2.244.813-3.479.813-.589-.336-1.094-1.178-1.262-2.076h-.193zm-.056-4.347c-.505-.141-1.291-.225-1.767-.225-1.907 0-2.973.898-2.973 2.244 0 1.43 1.009 2.048 2.159 2.048 1.094 0 2.076-.505 2.581-1.207v-2.86zM182.465 51.835c.561-.309 1.795-.562 2.608-.562v4.067h3.983c.084.42.197 1.542.113 2.16h-4.096v7.013c0 1.683.449 2.328 1.795 2.328.757 0 1.794-.168 2.609-.365.028.14.028.365.028.421 0 .504-.168 1.122-.449 1.599-1.095.533-2.553.813-3.646.813-2.413 0-3.618-1.234-3.618-4.32 0-1.739.056-4.937.196-7.489h-2.02c0-.505.196-1.515.42-1.991.45-.225 1.094-.449 1.6-.561l.477-3.113zM196.042 66.646c.618.084 1.487.252 1.936.449.112.393.168 1.262.084 1.739h-7.377c.057-.533.224-1.234.42-1.627.422-.252 1.178-.504 1.711-.673v-15.793h-1.992c.029-.645.281-1.515.59-2.02.701-.28 1.794-.477 2.833-.477.589 0 1.347.084 1.795.253v4.852c0 1.234-.084 2.75-.196 4.067h.337c.561-1.374 1.991-2.552 4.403-2.552 2.301 0 4.404.701 4.404 5.077 0 2.216-.056 4.573-.196 6.705.673.056 1.572.252 2.132.449.084.365.113.729.113 1.094 0 .252-.029.477-.057.646h-7.096c.056-.533.196-1.234.365-1.627.364-.252 1.037-.504 1.486-.673v-6.031c0-1.908-.645-3.169-2.44-3.169-1.431 0-2.665.953-3.254 1.851v7.46zM211.273 62.663c.141 2.608 1.796 4.151 4.236 4.151 1.234 0 3.113-.365 4.151-.757.056.589-.196 1.599-.533 2.132-1.009.561-2.721 1.122-4.6 1.122-4.207 0-6.619-3.001-6.619-6.957 0-4.264 2.692-7.489 6.816-7.489 3.59 0 5.076 2.497 5.076 6.283 0 .477-.027 1.01-.084 1.515h-8.443zm5.359-2.077c.168-1.711-.365-3.759-2.384-3.759-1.711 0-2.861 1.543-3.029 3.759h5.413zM226.899 57.95c.337-1.627 1.739-3.085 3.618-3.085.422 0 1.011.056 1.347.224.28.421.449 1.234.449 2.077 0 .364-.028.729-.112 1.009-.562-.309-1.403-.478-2.02-.478-1.262 0-2.468.702-3.17 2.104v6.76c.814.084 2.132.309 2.75.561.14.393.196 1.234.112 1.711h-8.219c.057-.533.224-1.234.42-1.627.422-.252 1.179-.504 1.711-.673v-9.004h-1.991c0-.617.224-1.486.56-1.991.646-.281 1.627-.477 2.581-.477.562 0 1.206.084 1.599.224v2.665h.365zM234.781 50.741h-1.991c.028-.645.281-1.515.56-2.02.703-.28 1.796-.477 2.834-.477.616 0 1.374.084 1.822.253v4.15c0 1.403-.112 3.03-.224 4.321h.365c.477-1.095 1.711-2.104 3.814-2.104 2.553 0 5.414 1.711 5.414 6.844 0 4.572-2.945 7.602-7.209 7.602-1.879 0-3.786-.365-5.386-1.178v-17.391zm3.143 16.129c.561.168 1.29.281 1.936.281 2.861 0 4.15-2.02 4.15-5.05 0-3.114-1.346-4.853-3.198-4.853-1.317 0-2.328.701-2.888 1.543v8.079zM256.999 67.234c-.758 1.318-2.132 2.076-4.011 2.076-2.047 0-4.011-1.262-4.011-3.955 0-3.001 2.497-4.516 5.47-4.516.841 0 1.767.168 2.44.477v-1.291c0-1.794-.87-2.637-2.553-2.637-1.262 0-3.31.646-4.319 1.262-.084-.224-.112-.645-.112-.954 0-.728.169-1.542.42-1.963.982-.477 3.198-.87 4.797-.87 3.281 0 4.908 1.403 4.908 5.133v5.077c0 .73.141 1.431.365 1.768.478 0 1.375-.14 1.908-.28.028.14.028.28.028.364 0 .534-.169 1.123-.393 1.571-.673.393-2.244.813-3.479.813-.589-.336-1.094-1.178-1.263-2.076h-.195zm-.057-4.347c-.504-.141-1.29-.225-1.767-.225-1.906 0-2.972.898-2.972 2.244 0 1.43 1.009 2.048 2.159 2.048 1.094 0 2.076-.505 2.58-1.207v-2.86zM271.726 57.249c-.45-.196-.897-.308-1.319-.308-2.16 0-3.73 1.514-3.73 4.881 0 3.506 1.711 5.104 4.067 5.104 1.178 0 2.721-.336 3.73-.757.057.589-.169 1.543-.533 2.104-1.095.562-2.805 1.038-4.404 1.038-3.871 0-6.311-2.917-6.311-6.957 0-4.376 2.946-7.489 7.237-7.489 1.57 0 2.944.393 4.039 1.01.057.28.084.786.084 1.122 0 .925-.197 1.991-.478 2.721-.701 0-1.822-.28-2.383-.589v-1.88zM281.264 66.646c.617.084 1.43.252 1.907.449.084.393.141 1.262.084 1.739h-7.348c.055-.533.224-1.234.42-1.627.421-.252 1.178-.504 1.71-.673v-15.793h-1.991c.027-.645.28-1.515.588-2.02.701-.28 1.767-.477 2.833-.477.589 0 1.347.084 1.796.253v11.977h1.486l1.851-1.936c.253-.28.842-.786 1.235-.981-.449-.084-1.235-.253-1.6-.421-.196-.506-.281-1.207-.281-1.795h6.733c0 .589-.196 1.458-.393 1.963-.337.141-1.122.253-1.542.309l-3.646 3.478c1.991 2.749 4.264 5.33 4.824 5.638l1.627-.252c.028.168.028.393.028.448 0 .534-.197 1.431-.449 1.908-.672.252-1.542.504-2.412.588-1.262-.224-3.815-3.702-6.283-7.04h-1.178v4.265zM143.445 95.977c.87.056 1.991.168 2.748.309.14.477.197 1.599.112 2.047h-9.116c.029-.562.308-1.487.504-1.963.562-.168 1.684-.365 2.357-.421v-15.119h-3.872c-.056.617-.252 1.795-.365 2.328-.701.197-1.711.253-2.44.253v-4.741h16.747v4.854c-.787 0-1.768-.084-2.469-.28-.14-.618-.309-1.739-.365-2.413h-3.842v15.146zM155.03 87.45c.337-1.627 1.739-3.085 3.618-3.085.421 0 1.01.056 1.346.224.281.421.45 1.234.45 2.077 0 .364-.028.729-.112 1.009-.562-.309-1.404-.478-2.02-.478-1.262 0-2.468.702-3.17 2.104v6.76c.814.084 2.132.309 2.749.561.14.393.197 1.234.112 1.711h-8.219c.057-.533.224-1.234.42-1.627.421-.252 1.179-.504 1.711-.673v-9.004h-1.991c0-.617.224-1.486.56-1.991.646-.281 1.627-.477 2.582-.477.561 0 1.206.084 1.598.224v2.665h.366zM172.562 87.029h-1.992c.029-.617.281-1.486.589-1.991.673-.309 1.768-.477 2.833-.477.617 0 1.346.084 1.795.224v9.396c0 .646.057 1.375.224 2.02h2.077c.028.14.028.308.028.42 0 .449-.14 1.122-.336 1.487-1.039.336-3.17.561-4.32.561-.336-.617-.589-1.487-.673-2.328h-.196c-.617 1.178-2.02 2.468-4.376 2.468-2.271 0-4.264-.757-4.264-5.133 0-2.076.028-4.487.14-6.648h-2.103c.027-.617.28-1.514.589-1.991.673-.281 1.794-.477 2.86-.477.618 0 1.347.084 1.796.224v8.359c0 1.992.589 3.169 2.383 3.169 1.15 0 2.328-.785 2.946-1.543v-7.74zM186.56 86.552c-.365-.168-.926-.309-1.458-.309-1.235 0-1.936.533-1.936 1.459 0 2.973 6.564 1.795 6.564 6.816 0 3.141-2.553 4.291-5.386 4.291-1.739 0-3.337-.336-4.656-1.066-.084-.365-.14-.925-.14-1.431 0-.785.112-1.655.28-2.159.87 0 1.795.084 2.58.336v1.739c.589.365 1.403.561 2.132.561 1.234 0 2.02-.616 2.02-1.71 0-2.973-6.648-1.655-6.648-6.872 0-2.272 1.964-3.843 5.078-3.843 1.402 0 2.945.253 4.319.842.029.224.057.617.057.925 0 .814-.141 1.768-.309 2.413-.898 0-1.907-.225-2.497-.533v-1.459zM193.658 81.335c.561-.309 1.794-.562 2.608-.562v4.067h3.983c.084.42.196 1.542.112 2.16h-4.095v7.013c0 1.683.448 2.328 1.795 2.328.757 0 1.796-.168 2.608-.365.028.14.028.365.028.421 0 .504-.167 1.122-.448 1.599-1.093.533-2.553.813-3.646.813-2.413 0-3.619-1.234-3.619-4.32 0-1.739.056-4.937.196-7.489h-2.02c0-.505.196-1.515.42-1.991.449-.225 1.095-.449 1.599-.561l.479-3.113zM19.685 62.69c-.66 0-1.254-.103-1.764-.306-.544-.216-1.049-.504-1.5-.858 1.83-.781 5.106-2.308 7.928-4.306 1.156-.82 2.879-2.356 5.062-4.302 5.455-4.861 13.695-12.207 21.735-16.031 12.829-6.1 23.919-6.759 28.092-6.759.525 0 .933.011 1.211.022.282.468.827 1.319 1.556 2.172.41.48 1.031 1.003 1.847 1.557-5.692 1.346-18.913 4.632-25.917 7.679-7.32 3.185-15.656 8.729-21.172 12.398l-.116.077c-1.033.687-1.953 1.299-2.731 1.804-4.641 3.01-12.402 6.533-12.73 6.682-.144.035-.753.171-1.501.171zM30.032 64.432c-.664 0-1.34-.03-2.01-.091-1.9-.17-3.47-.634-4.528-1.033 2.871-1.353 7.89-3.818 11.339-6.055.812-.527 1.778-1.169 2.863-1.892 5.477-3.642 13.734-9.135 20.911-12.255 7.031-3.06 21.247-6.546 25.889-7.644-.666 1.414-1.477 3.395-1.812 5.251-.414 2.287-.228 4-.067 4.862-1.205.951-5.586 4.118-15.125 8.242-11.036 4.771-30.919 9.605-33.149 10.14-.224.059-1.873.475-4.311.475zM44.635 65.682c-3.172 0-5.625-.263-7.143-.765 6.495-1.631 21.527-5.6 30.669-9.553 6.995-3.025 11.579-5.788 13.859-7.296-1.763 4.73-5.249 11.16-14.757 14.304-5.802 1.918-15.317 3.31-22.627 3.31h-.001zM37.26 68.971c-1.032.635-2.116 1.35-3.046 2.088-2.625 2.084-4.024 4.41-5.505 6.871-1.194 1.987-2.43 4.041-4.427 6.271-4.465 4.985-8.207 5.238-8.913 5.238-.296 0-.552-.035-.722-.098-.876-.324-1.419-6.2-.908-9.825.47-3.328 3.522-8.344 6.753-9.825 1.385-.636 2.797-1.032 4.164-1.417l.621-.175-.134-.648s-.811-.025-1.134-.025c-1.41 0-2.474.118-3.504.23-.86.094-1.672.183-2.573.183-.403 0-.797-.017-1.204-.054-2.756-.242-3.9-1.74-4.188-2.199.51-.185 2.778-1.089 4.361-1.815.69.373 1.908.602 2.784.602.728 0 1.342-.101 1.67-.168.892.465 3.224 1.517 6.516 1.813.719.064 1.446.098 2.161.098 2.215 0 3.809-.31 4.438-.457 2.273 1.125 6 1.717 10.785 1.717 7.208 0 16.476-1.401 22.539-3.407 6.216-2.055 9.675-5.201 11.491-7.504.196.038.701.124 1.248.132-.334.97-.588 2.958-.618 4.297-.825 1.162-1.661 2.052-2.558 2.723-4.189 3.132-11.462 5.262-21.62 6.328-1.2.126-2.575.19-4.087.19-4.897.002-10.558-.663-14.39-1.164zM61.502 75.015c-.106 0-.191-.016-.254-.048-.908-.476-1.109-1.691-.647-3.938 3.405-.516 6.476-1.188 9.137-1.998-3.156 3.666-6.942 5.984-8.236 5.984zM94.596 40.674c1.879-1.612 3.501-3.004 4.607-4.473 2.081-2.762 2.374-5.622 2.404-5.995-.215-.345-2.154-3.202-7.074-3.202-.476 0-.973.027-1.475.08-3.148.331-4.519 1.234-5.971 2.189-1.035.68-2.102 1.383-3.854 1.882 1.084 1.213 3.023 2.233 3.612 2.526l.156.533c-.508.976-2.2 4.351-2.658 6.799-.473 2.533-.092 4.547.096 5.11l.013.039-.01.039c-.592 2.318-2.379 6.37-4.141 8.853.246.032.539.048.869.048.539 0 1.062-.058 1.062-.058l.337.479s-1.075 2.449-1.035 5.506c.012 1.023.196 2.24.409 3.648.298 1.971.636 4.203.59 6.547-.059 3.041-.49 5.358-.906 7.598-.267 1.434-.542 2.918-.717 4.579-.448 4.248.852 7.398 1.401 7.538.148.038.305.057.469.057h.001c3.721 0 10.859-9.688 13.574-20.576 2.32-9.301 1.988-15.987-1.014-20.443-2.336-3.467-5.269-3.635-5.299-3.636l-.356-1.184c1.719-1.746 3.415-3.2 4.91-4.483zm2.671-9.469c.765 0 1.385.619 1.385 1.385 0 .764-.62 1.385-1.385 1.385s-1.385-.621-1.385-1.385c0-.766.619-1.385 1.385-1.385z"/><path fill="#DAD7CF" d="M72.444 18.796c-4.577 0-7.483-1.579-10.561-3.25-3.171-1.725-6.448-3.506-11.72-3.923-.823-.066-1.637-.099-2.418-.099-4.848 0-8.141 1.247-11.324 2.451-3.034 1.146-6.161 2.329-10.694 2.406l-.347.003c-2.346 0-4.548-.427-6.286-.841 4.146-3.808 8.794-6.995 13.825-9.478 2.802.041 5.786.69 8.942 1.375 3.676.8 7.837 1.705 12.253 1.705 1.062 0 2.115-.053 3.127-.158 5.72-.591 11.151-3.335 15.942-5.755l.139-.07c.618-.312 1.229-.621 1.836-.922 6.493 1.845 12.576 4.776 18.092 8.715-6.047 4.492-12.293 7.091-18.569 7.724-.769.077-1.521.117-2.237.117zM111.131 46.709c-5.36 0-8.047-1.322-10.416-2.489-1.548-.763-3.14-1.549-5.303-1.842l.37-.318c1.962-1.685 3.652-3.135 4.877-4.762.438-.581.845-1.234 1.213-1.939 3.403-.871 6.594-2.071 9.491-3.57 2.347 4.507 4.097 9.298 5.207 14.248-1.798.451-3.579.672-5.439.672zM103.457 29.774c-1.669-2.87-4.965-4.589-8.967-4.589-.529 0-1.075.029-1.623.087-3.588.378-5.28 1.496-6.774 2.483-1.002.663-2.036 1.346-3.878 1.784-.298-.466-.701-1.132-.701-1.132s-1.134-.1-2.276-.1c-2.849 0-8.727.295-16.155 2.265-2.227-.918-4.318-1.904-6.166-2.775-4.858-2.291-9.447-4.454-14.962-4.956-.761-.068-1.536-.104-2.302-.104-6.919 0-12.824 2.816-18.034 5.3-4.591 2.188-8.929 4.255-13.37 4.255-.318 0-.639-.011-.958-.032-.283-.02-.566-.047-.854-.083 2.843-5.559 6.535-10.612 10.979-15.029 2.423.627 5.061 1.198 7.958 1.198l.386-.003c4.875-.084 8.166-1.328 11.349-2.532 3.166-1.197 6.152-2.327 10.608-2.327.735 0 1.506.031 2.29.093 4.856.385 7.946 2.066 10.937 3.691 3.311 1.797 6.431 3.493 11.454 3.493.794 0 1.629-.044 2.48-.13 4.509-.454 9.029-1.87 13.433-4.207 2.218-1.178 4.432-2.607 6.585-4.249 6.37 4.891 11.594 10.907 15.531 17.889-2.32 1.191-4.87 2.192-7.594 2.98.334-1.055.56-2.138.624-3.27zM54.071 7.188c-4.147 0-8.034-.845-11.792-1.663-1.89-.412-3.833-.834-5.714-1.109 7.118-2.931 14.66-4.416 22.435-4.416 4.479 0 8.94.504 13.269 1.499-4.857 2.454-9.881 4.986-15.229 5.54-.965.099-1.965.149-2.969.149zM1.279 46.729c.927-4.38 2.357-8.649 4.253-12.704.542.089 1.087.152 1.625.188.372.026.745.039 1.108.039 4.867 0 9.396-2.158 14.191-4.443 5.28-2.516 10.731-5.114 17.153-5.114.72 0 1.45.034 2.17.098 5.165.469 9.396 2.463 14.295 4.773 1.408.664 2.698 1.269 4.036 1.863-3.322 1.034-6.598 2.316-9.748 3.814-4.046 1.924-8.512 4.87-13.644 9.001-4.091-2.884-8.342-5.466-14.998-5.696l-.597-.011c-6.969 0-13.868 4.159-19.844 8.192zM21.429 56.954c.669-.407 1.292-.815 1.866-1.222 1.068-.755 2.76-2.263 4.922-4.191 1.94-1.729 4.339-3.866 6.924-6.01-3.532-2.458-7.513-4.818-13.487-5.023l-.527-.01c-6.73 0-13.745 4.411-20.358 8.95-.511 3.138-.821 6.526-.762 10.456 3.702-2.597 8.734-4.292 13.867-4.395 4.015-.081 7.555 1.445 7.555 1.445zM42.074 115.536c-8.555-2.559-16.546-7.126-23.139-13.226 1.901-1.085 3.7-2.35 5.444-3.576 4.502-3.166 9.157-6.438 15.197-6.438l.167.001c4.751.046 8.427 1.98 12.317 4.028 4.17 2.195 8.897 4.685 15.61 5.143.688.047 1.364.07 2.006.07 3.884 0 6.334-.849 8.705-1.67 2.135-.739 4.143-1.436 7.154-1.436 1.179 0 2.423.106 3.807.32 4.725.737 7.332 2.059 9.854 3.337l.067.034c-2.876 2.687-6.025 5.089-9.366 7.148-.816.071-1.588.105-2.358.105l-.336-.002c-4.078-.059-7.114-.53-10.329-1.029-3.073-.476-6.222-.964-10.352-1.086-.349-.01-.693-.016-1.033-.016-8.492 0-14.167 3.195-19.172 6.014-1.475.831-2.86 1.612-4.243 2.279zM59 118c-4.776 0-9.523-.572-14.124-1.702.832-.448 1.657-.912 2.401-1.332 4.796-2.701 10.233-5.764 18.238-5.764.312 0 .628.005.949.015 4.02.12 7.115.6 10.107 1.064 2.93.453 5.94.919 9.729 1.032-8.373 4.379-17.789 6.687-27.3 6.687zM98.952 66.243c1.264-7.489.54-13.12-2.213-17.209-1.541-2.286-3.333-3.373-4.634-3.888.392-.371.779-.724 1.162-1.069l.049-.003.264-.002c2.708 0 4.382.825 6.321 1.78 2.556 1.259 5.443 2.682 11.23 2.682 2.045 0 3.992-.242 5.945-.739.704 3.673 1.061 7.442 1.061 11.207l-.002.358-.707.396c-5.027 2.813-10.723 6.003-18.294 6.483l-.182.004zM116.16 74.206c-4.163 2.482-9.83 5.621-12.314 6.644-4.004 1.648-8.043 3.013-11.983 4.056 2.692-4.193 4.958-9.384 6.128-14.078.233-.937.446-1.883.647-2.887l.08-.002.522-.018c7.87-.5 13.708-3.729 18.853-6.607-.17 4.381-.822 8.704-1.933 12.892zM79.103 87.124c-8.137.474-16.086-1.315-23.677-5.338-6.666-3.533-13.929-6.747-22.302-7.122.651-.773 1.375-1.503 2.223-2.176.726-.576 1.492-1.125 2.28-1.632 3.716.479 9.17 1.104 14.024 1.104 1.657 0 4.442-.137 7.018-.519-.413 2.595.17 4.325 1.736 5.143.331.169.699.254 1.097.254 2.28 0 6.739-3.14 9.941-6.999l1.477-1.781c2.195-.875 4.055-1.877 5.528-2.979.514-.384 1-.815 1.474-1.31l.061.354c.364 2.126.777 4.534.729 7.065-.056 2.887-.455 5.025-.874 7.291-.531 2.869-1.097 5.63-.735 8.645zM5.144 83.117c1.825-1.254 5.038-3.038 6.783-3.767.382-3.147 2.697-7.204 5.356-9.641l-.073.001c-3.432 0-6.525-2.254-7.143-5.2 1.99-.588 4.019-1.468 4.86-1.842-.364-.313-1.035-1.027-1.408-1.887 1.795-.614 4.488-1.815 5.804-2.63-.887-.437-3.686-.909-5.712-.845-4.208.134-9.102 1.483-13.539 4.654.364 7.353 2.065 14.463 5.059 21.142M79.424 89.026c.461 1.923 1.287 3.387 2.44 3.679.295.075.604.112.917.112 2.803 0 5.647-2.951 7.619-5.562 4.635-1.113 9.431-2.677 14.177-4.63 2.271-.936 6.867-3.438 10.798-5.727-3.041 9.265-7.706 16.765-14.619 23.783l-.669-.336c-2.666-1.352-5.413-2.746-10.444-3.528-1.475-.229-2.814-.341-4.099-.341-3.365 0-5.619.783-7.8 1.54-2.22.77-4.51 1.562-8.096 1.562-.591 0-1.211-.022-1.844-.064-6.301-.431-10.637-2.714-14.83-4.921-4.112-2.164-7.989-4.204-13.214-4.255h-.187c-6.658 0-11.57 3.454-16.321 6.794-1.981 1.394-3.839 2.697-5.792 3.769-4.72-4.681-8.589-10.075-11.497-16.021 1.645-1.122 3.633-2.26 5.841-3.329-.182 4.133.191 8.758 2.212 9.504.407.15.877.226 1.397.226 2.929 0 7.134-2.411 10.225-5.863.848-.947 1.626-1.944 2.437-3.125l1.091-1.668c.314-.5.614-.995.91-1.48.539-.886 1.067-1.754 1.633-2.591 8.567.06 16.009 3.324 22.816 6.932 7.077 3.751 14.458 5.638 22.016 5.638.959 0 1.92-.029 2.884-.09"/></svg>