<!DOCTYPE svg PUBLIC "-//W3C//DTD SVG 1.1//EN" "http://www.w3.org/Graphics/SVG/1.1/DTD/svg11.dtd" [
	<!ENTITY ns_flows "http://ns.adobe.com/Flows/1.0/">
]><svg xmlns="http://www.w3.org/2000/svg" width="90" height="30" viewBox="875 10.044 90 30" overflow="visible" enable-background="new 875 10.044 90 30"><path fill="none" d="M875 10.044h30v30h-30zM905 10.044h30v30h-30zM935 10.044h30v30h-30z"/><path fill="#4D555E" d="M931.143 19.329v.752c0 7.588-5.77 16.338-16.324 16.338-3.24 0-6.289-.711-8.818-2.338.451.068.902.096 1.367.096 2.68 0 5.182-1.162 7.123-2.721-2.488-.027-4.635-1.723-5.346-3.992.355.068.711.109 1.066.109.52 0 1.039-.068 1.531-.205-2.625-.52-4.607-2.844-4.607-5.633v-.068c.779.424 1.654.684 2.598.711-1.559-1.039-2.57-2.789-2.57-4.758 0-1.066.301-1.941.779-2.789 2.857 3.473 7.068 5.633 11.826 5.893-.096-.41-.123-.875-.123-1.326 0-3.172 2.557-5.729 5.729-5.729 1.654 0 3.145.711 4.225 1.805 1.285-.26 2.529-.738 3.623-1.395-.424 1.34-1.326 2.475-2.529 3.186 1.176-.137 2.27-.451 3.309-.916-.781 1.175-1.752 2.173-2.859 2.98zM964 37.294c0 .957-.793 1.75-1.75 1.75h-7v-10.883h3.5l.588-4.033h-4.088v-3.172c0-1.148.588-1.805 1.75-1.805h2.625v-3.637s-1.176-.191-2.871-.191c-3.842 0-5.783 2.133-5.783 5.318v3.486h-3.5v4.033h3.5v10.883h-13.221c-.957 0-1.75-.793-1.75-1.75v-24.5c0-.957.793-1.75 1.75-1.75h24.5c.957 0 1.75.793 1.75 1.75v24.501zM890 26.794l-14-10.5c0-.971.779-1.75 1.75-1.75h24.5c.971 0 1.75.779 1.75 1.75l-14 10.5zm0 3.144l14-10.5v14.355c0 .971-.779 1.75-1.75 1.75h-24.5c-.971 0-1.75-.779-1.75-1.75v-14.355l14 10.5z"/></svg>