<!DOCTYPE svg PUBLIC "-//W3C//DTD SVG 1.1//EN" "http://www.w3.org/Graphics/SVG/1.1/DTD/svg11.dtd" [
	<!ENTITY ns_flows "http://ns.adobe.com/Flows/1.0/">
]><svg xmlns="http://www.w3.org/2000/svg" width="198" height="40" viewBox="0 0 198 40" overflow="visible"><path fill="#FFE4AA" d="M7.479 2.979c1.32-1.319 2.91-1.979 4.771-1.979s3.451.66 4.771 1.979c1.319 1.32 1.979 2.91 1.979 4.771 0 1.861-.66 3.452-1.979 4.771s-2.91 1.979-4.771 1.979c-1.319 0-2.521-.347-3.604-1.042l-5.083 5.104c-.292.292-.646.438-1.063.438s-.771-.146-1.062-.438-.438-.645-.438-1.062.146-.771.438-1.062l5.104-5.083c-.695-1.084-1.042-2.285-1.042-3.605 0-1.861.659-3.451 1.979-4.771zm1.594 7.948c.882.882 1.94 1.323 3.177 1.323s2.295-.441 3.177-1.323 1.323-1.941 1.323-3.177-.441-2.295-1.323-3.177c-.882-.882-1.94-1.323-3.177-1.323s-2.295.441-3.177 1.323c-.883.882-1.323 1.941-1.323 3.177s.44 2.295 1.323 3.177zM37.163 6.326v.483c0 4.878-3.709 10.503-10.494 10.503-2.083 0-4.043-.457-5.669-1.503.29.044.58.062.879.062 1.723 0 3.331-.747 4.579-1.749-1.6-.018-2.979-1.107-3.437-2.566.229.044.457.07.686.07.334 0 .668-.044.984-.132-1.688-.334-2.962-1.828-2.962-3.621v-.044c.501.272 1.063.439 1.67.457-1.002-.668-1.652-1.793-1.652-3.059 0-.686.193-1.248.501-1.793 1.837 2.232 4.544 3.621 7.603 3.788-.062-.264-.079-.562-.079-.853 0-2.039 1.644-3.683 3.683-3.683 1.063 0 2.021.457 2.716 1.16.826-.167 1.626-.475 2.329-.896-.272.861-.853 1.591-1.626 2.048.755-.087 1.458-.289 2.126-.588-.501.756-1.125 1.398-1.837 1.916zM59 17.875c0 .615-.51 1.125-1.125 1.125h-4.5v-6.996h2.25l.378-2.593h-2.628v-2.039c0-.738.378-1.16 1.125-1.16h1.688v-2.338s-.756-.123-1.846-.123c-2.47 0-3.718 1.371-3.718 3.419v2.241h-2.25v2.593h2.25v6.996h-8.499c-.615 0-1.125-.51-1.125-1.125v-15.75c0-.615.51-1.125 1.125-1.125h15.75c.615 0 1.125.51 1.125 1.125v15.75zM79 10c0 6.372 0 6.372-9 6.372s-9 0-9-6.372 0-6.372 9-6.372 9 0 9 6.372zm-5.625 0l-5.625-3.375v6.75l5.625-3.375z"/><path fill="none" d="M0 0h20v20h-20zM20 0h20v20h-20zM40 0h20v20h-20zM60 0h20v20h-20z"/><path fill="#fff" d="M7.479 22.979c1.32-1.319 2.91-1.979 4.771-1.979s3.451.66 4.771 1.979c1.319 1.32 1.979 2.91 1.979 4.771 0 1.861-.66 3.452-1.979 4.771s-2.91 1.979-4.771 1.979c-1.319 0-2.521-.347-3.604-1.042l-5.083 5.104c-.292.292-.646.438-1.063.438s-.771-.146-1.062-.438-.438-.645-.438-1.062.146-.771.438-1.062l5.104-5.083c-.695-1.084-1.042-2.285-1.042-3.605 0-1.861.659-3.451 1.979-4.771zm1.594 7.948c.882.882 1.94 1.323 3.177 1.323s2.295-.441 3.177-1.323 1.323-1.941 1.323-3.177-.441-2.295-1.323-3.177c-.882-.882-1.94-1.323-3.177-1.323s-2.295.441-3.177 1.323c-.883.882-1.323 1.941-1.323 3.177s.44 2.295 1.323 3.177zM37.163 26.326v.483c0 4.878-3.709 10.503-10.494 10.503-2.083 0-4.043-.457-5.669-1.503.29.044.58.062.879.062 1.723 0 3.331-.747 4.579-1.749-1.6-.018-2.979-1.107-3.437-2.566.229.044.457.07.686.07.334 0 .668-.044.984-.132-1.688-.334-2.962-1.828-2.962-3.621v-.044c.501.272 1.063.439 1.67.457-1.002-.668-1.652-1.793-1.652-3.059 0-.686.193-1.248.501-1.793 1.837 2.232 4.544 3.621 7.603 3.788-.062-.264-.079-.562-.079-.853 0-2.039 1.644-3.683 3.683-3.683 1.063 0 2.021.457 2.716 1.16.826-.167 1.626-.475 2.329-.896-.272.861-.853 1.591-1.626 2.048.756-.088 1.459-.29 2.127-.589-.502.757-1.126 1.399-1.838 1.917zM59 37.875c0 .615-.51 1.125-1.125 1.125h-4.5v-6.996h2.25l.378-2.593h-2.628v-2.039c0-.738.378-1.16 1.125-1.16h1.688v-2.338s-.756-.123-1.846-.123c-2.47 0-3.718 1.371-3.718 3.419v2.241h-2.25v2.593h2.25v6.996h-8.499c-.615 0-1.125-.51-1.125-1.125v-15.75c0-.615.51-1.125 1.125-1.125h15.75c.615 0 1.125.51 1.125 1.125v15.75zM79 30c0 6.372 0 6.372-9 6.372s-9 0-9-6.372 0-6.372 9-6.372 9 0 9 6.372zm-5.625 0l-5.625-3.375v6.75l5.625-3.375z"/><path fill="none" d="M0 20h20v20h-20zM20 20h20v20h-20zM40 20h20v20h-20zM60 20h20v20h-20zM80 0h20v20h-20z"/><path fill="#FFE4AA" d="M92.125 10l5.653-5.653c.292-.291.437-.646.438-1.062 0-.417-.146-.771-.438-1.062-.291-.291-.645-.438-1.062-.438-.417.001-.771.147-1.062.438l-5.654 5.652-5.652-5.652c-.292-.293-.646-.438-1.062-.438-.418.001-.771.146-1.063.438-.29.292-.437.646-.438 1.062 0 .417.146.771.439 1.062l5.651 5.653-5.653 5.653c-.292.292-.438.646-.438 1.062 0 .417.146.771.438 1.062.293.291.646.438 1.062.438.418 0 .771-.146 1.063-.438l5.653-5.652 5.653 5.653c.292.292.647.438 1.062.438.417-.001.771-.146 1.062-.438.293-.293.438-.646.438-1.062 0-.417-.146-.771-.438-1.063l-5.652-5.653z"/><path fill="none" d="M80 20h20v20h-20z"/><path fill="#fff" d="M92.125 30l5.653-5.653c.292-.291.437-.646.438-1.062 0-.417-.146-.771-.438-1.062-.291-.291-.645-.438-1.062-.438-.417.001-.771.147-1.062.438l-5.654 5.652-5.652-5.652c-.292-.293-.646-.438-1.062-.438-.418.001-.771.146-1.063.438-.29.292-.437.646-.438 1.062 0 .417.146.771.439 1.062l5.651 5.653-5.653 5.653c-.292.292-.438.646-.438 1.062 0 .417.146.771.438 1.062.293.291.646.438 1.062.438.418 0 .771-.146 1.063-.438l5.653-5.652 5.653 5.653c.292.292.647.438 1.062.438.417-.001.771-.146 1.062-.438.293-.293.438-.646.438-1.062 0-.417-.146-.771-.438-1.063l-5.652-5.653z"/><path fill="none" d="M100 20h20v20h-20z"/><path fill="#FFE4AA" d="M119 30c0 .829-.671 1.5-1.5 1.5h-15c-.829 0-1.5-.671-1.5-1.5s.671-1.5 1.5-1.5h15c.829 0 1.5.671 1.5 1.5zM119 36c0 .829-.671 1.5-1.5 1.5h-15c-.829 0-1.5-.671-1.5-1.5s.671-1.5 1.5-1.5h15c.829 0 1.5.671 1.5 1.5zM119 24c0 .829-.671 1.5-1.5 1.5h-15c-.829 0-1.5-.671-1.5-1.5s.671-1.5 1.5-1.5h15c.829 0 1.5.671 1.5 1.5z"/><path fill="none" d="M100 0h20v20h-20z"/><path fill="#4D555E" d="M119 10c0 .829-.671 1.5-1.5 1.5h-15c-.829 0-1.5-.671-1.5-1.5s.671-1.5 1.5-1.5h15c.829 0 1.5.671 1.5 1.5zM119 16c0 .829-.671 1.5-1.5 1.5h-15c-.829 0-1.5-.671-1.5-1.5s.671-1.5 1.5-1.5h15c.829 0 1.5.671 1.5 1.5zM119 4c0 .829-.671 1.5-1.5 1.5h-15c-.829 0-1.5-.671-1.5-1.5s.671-1.5 1.5-1.5h15c.829 0 1.5.671 1.5 1.5z"/></svg>